<?xml version="1.0" encoding="UTF-8" standalone="no"?>
<!DOCTYPE svg PUBLIC "-//W3C//DTD SVG 1.1//EN"
 "http://www.w3.org/Graphics/SVG/1.1/DTD/svg11.dtd">
<!-- Generated by graphviz version 2.43.0 (0)
 -->
<!-- Title: DRIP Pages: 1 -->
<svg width="1845pt" height="723pt"
 viewBox="0.00 0.00 1845.32 723.24" xmlns="http://www.w3.org/2000/svg" xmlns:xlink="http://www.w3.org/1999/xlink">
<g id="graph0" class="graph" transform="scale(1 1) rotate(0) translate(20.16 703.08)">
<title>DRIP</title>
<polygon fill="white" stroke="transparent" points="-20.16,20.16 -20.16,-703.08 1825.16,-703.08 1825.16,20.16 -20.16,20.16"/>
<text text-anchor="middle" x="902.5" y="-664.52" font-family="DejaVu Sans" font-size="18.00">DRIP: Drift&#45;Aware Evidence Cache Management</text>
<g id="clust1" class="cluster">
<title>cluster_observation</title>
<path fill="#f2faf4" stroke="#93c5a5" stroke-width="1.2" d="M179,-335.92C179,-335.92 550.5,-335.92 550.5,-335.92 556.5,-335.92 562.5,-341.92 562.5,-347.92 562.5,-347.92 562.5,-463.92 562.5,-463.92 562.5,-469.92 556.5,-475.92 550.5,-475.92 550.5,-475.92 179,-475.92 179,-475.92 173,-475.92 167,-469.92 167,-463.92 167,-463.92 167,-347.92 167,-347.92 167,-341.92 173,-335.92 179,-335.92"/>
<text text-anchor="middle" x="364.75" y="-462.32" font-family="DejaVu Sans" font-size="12.00">1. Online Observation</text>
</g>
<g id="clust2" class="cluster">
<title>cluster_detector</title>
<path fill="#fffaeb" stroke="#e5b75a" stroke-width="1.2" d="M20,-507.92C20,-507.92 1044,-507.92 1044,-507.92 1050,-507.92 1056,-513.92 1056,-519.92 1056,-519.92 1056,-608.92 1056,-608.92 1056,-614.92 1050,-620.92 1044,-620.92 1044,-620.92 20,-620.92 20,-620.92 14,-620.92 8,-614.92 8,-608.92 8,-608.92 8,-519.92 8,-519.92 8,-513.92 14,-507.92 20,-507.92"/>
<text text-anchor="middle" x="532" y="-607.32" font-family="DejaVu Sans" font-size="12.00">2. Support&#45;Weighted Drift Detection</text>
</g>
<g id="clust3" class="cluster">
<title>cluster_evidence</title>
<path fill="#faf5ff" stroke="#b99ade" stroke-width="1.2" d="M679,-233.92C679,-233.92 1223,-233.92 1223,-233.92 1229,-233.92 1235,-239.92 1235,-245.92 1235,-245.92 1235,-361.92 1235,-361.92 1235,-367.92 1229,-373.92 1223,-373.92 1223,-373.92 679,-373.92 679,-373.92 673,-373.92 667,-367.92 667,-361.92 667,-361.92 667,-245.92 667,-245.92 667,-239.92 673,-233.92 679,-233.92"/>
<text text-anchor="middle" x="951" y="-360.32" font-family="DejaVu Sans" font-size="12.00">3. Evidence Acquisition</text>
</g>
<g id="clust4" class="cluster">
<title>cluster_admission</title>
<path fill="#fff5f4" stroke="#df8c86" stroke-width="1.2" d="M1105,-507.92C1105,-507.92 1620,-507.92 1620,-507.92 1626,-507.92 1632,-513.92 1632,-519.92 1632,-519.92 1632,-634.92 1632,-634.92 1632,-640.92 1626,-646.92 1620,-646.92 1620,-646.92 1105,-646.92 1105,-646.92 1099,-646.92 1093,-640.92 1093,-634.92 1093,-634.92 1093,-519.92 1093,-519.92 1093,-513.92 1099,-507.92 1105,-507.92"/>
<text text-anchor="middle" x="1362.5" y="-633.32" font-family="DejaVu Sans" font-size="12.00">4. Replacement&#45;Aware Admission</text>
</g>
<!-- Q -->
<g id="node1" class="node">
<title>Q</title>
<path fill="#ffffff" stroke="#334155" stroke-width="1.8" d="M107.5,-491.92C107.5,-491.92 30.5,-491.92 30.5,-491.92 24.5,-491.92 18.5,-485.92 18.5,-479.92 18.5,-479.92 18.5,-465.92 18.5,-465.92 18.5,-459.92 24.5,-453.92 30.5,-453.92 30.5,-453.92 107.5,-453.92 107.5,-453.92 113.5,-453.92 119.5,-459.92 119.5,-465.92 119.5,-465.92 119.5,-479.92 119.5,-479.92 119.5,-485.92 113.5,-491.92 107.5,-491.92"/>
<text text-anchor="middle" x="69" y="-476.12" font-family="DejaVu Sans" font-size="11.00">Query Window</text>
<text text-anchor="middle" x="69" y="-464.12" font-family="DejaVu Sans" font-size="11.00">Q_t</text>
</g>
<!-- SR -->
<g id="node4" class="node">
<title>SR</title>
<path fill="#e8f5e9" stroke="#3c7a57" stroke-width="1.4" d="M298,-425.92C298,-425.92 187,-425.92 187,-425.92 181,-425.92 175,-419.92 175,-413.92 175,-413.92 175,-399.92 175,-399.92 175,-393.92 181,-387.92 187,-387.92 187,-387.92 298,-387.92 298,-387.92 304,-387.92 310,-393.92 310,-399.92 310,-399.92 310,-413.92 310,-413.92 310,-419.92 304,-425.92 298,-425.92"/>
<text text-anchor="middle" x="242.5" y="-410.12" font-family="DejaVu Sans" font-size="11.00">Serving Retrieval</text>
<text text-anchor="middle" x="242.5" y="-398.12" font-family="DejaVu Sans" font-size="11.00">and Cache Coverage</text>
</g>
<!-- Q&#45;&gt;SR -->
<g id="edge1" class="edge">
<title>Q&#45;&gt;SR</title>
<path fill="none" stroke="#64748b" stroke-width="1.25" d="M119.6,-453.83C140.05,-445.96 163.84,-436.81 184.96,-428.68"/>
<polygon fill="#64748b" stroke="#64748b" stroke-width="1.25" points="185.95,-431.11 192.01,-425.97 184.06,-426.21 185.95,-431.11"/>
</g>
<!-- GAP -->
<g id="node8" class="node">
<title>GAP</title>
<path fill="#fff4d6" stroke="#b7791f" stroke-width="1.4" d="M275,-554.92C275,-554.92 210,-554.92 210,-554.92 204,-554.92 198,-548.92 198,-542.92 198,-542.92 198,-528.92 198,-528.92 198,-522.92 204,-516.92 210,-516.92 210,-516.92 275,-516.92 275,-516.92 281,-516.92 287,-522.92 287,-528.92 287,-528.92 287,-542.92 287,-542.92 287,-548.92 281,-554.92 275,-554.92"/>
<text text-anchor="middle" x="242.5" y="-539.12" font-family="DejaVu Sans" font-size="11.00">Support Gap</text>
<text text-anchor="middle" x="242.5" y="-527.12" font-family="DejaVu Sans" font-size="11.00">u_t(q)</text>
</g>
<!-- Q&#45;&gt;GAP -->
<g id="edge5" class="edge">
<title>Q&#45;&gt;GAP</title>
<path fill="none" stroke="#64748b" stroke-width="1.25" d="M119.6,-491.14C141.92,-499.34 168.24,-509.01 190.69,-517.26"/>
<polygon fill="#64748b" stroke="#64748b" stroke-width="1.25" points="189.89,-519.76 197.84,-519.88 191.7,-514.83 189.89,-519.76"/>
</g>
<!-- K -->
<g id="node2" class="node">
<title>K</title>
<path fill="#e8f0fe" stroke="#315a9a" stroke-width="1.8" d="M108,-422.4C108,-425.03 90.52,-427.17 69,-427.17 47.48,-427.17 30,-425.03 30,-422.4 30,-422.4 30,-379.44 30,-379.44 30,-376.81 47.48,-374.67 69,-374.67 90.52,-374.67 108,-376.81 108,-379.44 108,-379.44 108,-422.4 108,-422.4"/>
<path fill="none" stroke="#315a9a" stroke-width="1.8" d="M108,-422.4C108,-419.77 90.52,-417.63 69,-417.63 47.48,-417.63 30,-419.77 30,-422.4"/>
<text text-anchor="middle" x="69" y="-404.12" font-family="DejaVu Sans" font-size="11.00">Hot Cache</text>
<text text-anchor="middle" x="69" y="-392.12" font-family="DejaVu Sans" font-size="11.00">K_t</text>
</g>
<!-- K&#45;&gt;SR -->
<g id="edge2" class="edge">
<title>K&#45;&gt;SR</title>
<path fill="none" stroke="#64748b" stroke-width="1.25" d="M108.06,-402.25C125.47,-402.86 146.73,-403.61 167.12,-404.32"/>
<polygon fill="#64748b" stroke="#64748b" stroke-width="1.25" points="167.3,-406.95 174.88,-404.59 167.48,-401.7 167.3,-406.95"/>
</g>
<!-- K&#45;&gt;GAP -->
<g id="edge6" class="edge">
<title>K&#45;&gt;GAP</title>
<path fill="none" stroke="#64748b" stroke-width="1.25" d="M103.06,-425.69C109.42,-430.64 115.98,-435.87 122,-440.92 142.74,-458.3 146.01,-464.84 167,-481.92 179.88,-492.41 194.59,-503.28 207.52,-512.5"/>
<polygon fill="#64748b" stroke="#64748b" stroke-width="1.25" points="206.07,-514.69 213.71,-516.89 209.1,-510.41 206.07,-514.69"/>
</g>
<!-- UPDATE -->
<g id="node18" class="node">
<title>UPDATE</title>
<path fill="#f8d4d1" stroke="#a33d36" stroke-width="1.8" d="M1612,-557.92C1612,-557.92 1499,-557.92 1499,-557.92 1493,-557.92 1487,-551.92 1487,-545.92 1487,-545.92 1487,-531.92 1487,-531.92 1487,-525.92 1493,-519.92 1499,-519.92 1499,-519.92 1612,-519.92 1612,-519.92 1618,-519.92 1624,-525.92 1624,-531.92 1624,-531.92 1624,-545.92 1624,-545.92 1624,-551.92 1618,-557.92 1612,-557.92"/>
<text text-anchor="middle" x="1555.5" y="-542.12" font-family="DejaVu Sans" font-size="11.00">Admit Candidate</text>
<text text-anchor="middle" x="1555.5" y="-530.12" font-family="DejaVu Sans" font-size="11.00">Evict Weakest Victim</text>
</g>
<!-- K&#45;&gt;UPDATE -->
<g id="edge23" class="edge">
<title>K&#45;&gt;UPDATE</title>
<path fill="none" stroke="#64748b" stroke-width="1.25" d="M78.47,-374.77C97.87,-320.56 150.93,-200.92 241.5,-200.92 241.5,-200.92 241.5,-200.92 1341.5,-200.92 1415.08,-200.92 1512.99,-433.06 1544.37,-512.57"/>
<polygon fill="#64748b" stroke="#64748b" stroke-width="1.25" points="1542.02,-513.76 1547.2,-519.78 1546.9,-511.84 1542.02,-513.76"/>
</g>
<!-- C -->
<g id="node3" class="node">
<title>C</title>
<path fill="#e8f0fe" stroke="#315a9a" stroke-width="1.8" d="M788.5,-429.4C788.5,-432.03 769,-434.17 745,-434.17 721,-434.17 701.5,-432.03 701.5,-429.4 701.5,-429.4 701.5,-386.44 701.5,-386.44 701.5,-383.81 721,-381.67 745,-381.67 769,-381.67 788.5,-383.81 788.5,-386.44 788.5,-386.44 788.5,-429.4 788.5,-429.4"/>
<path fill="none" stroke="#315a9a" stroke-width="1.8" d="M788.5,-429.4C788.5,-426.77 769,-424.63 745,-424.63 721,-424.63 701.5,-426.77 701.5,-429.4"/>
<text text-anchor="middle" x="745" y="-411.12" font-family="DejaVu Sans" font-size="11.00">Cold Corpus</text>
<text text-anchor="middle" x="745" y="-399.12" font-family="DejaVu Sans" font-size="11.00">D</text>
</g>
<!-- DIRECT -->
<g id="node13" class="node">
<title>DIRECT</title>
<path fill="#f3e8ff" stroke="#7a4eab" stroke-width="1.4" d="M1034,-279.92C1034,-279.92 966,-279.92 966,-279.92 960,-279.92 954,-273.92 954,-267.92 954,-267.92 954,-253.92 954,-253.92 954,-247.92 960,-241.92 966,-241.92 966,-241.92 1034,-241.92 1034,-241.92 1040,-241.92 1046,-247.92 1046,-253.92 1046,-253.92 1046,-267.92 1046,-267.92 1046,-273.92 1040,-279.92 1034,-279.92"/>
<text text-anchor="middle" x="1000" y="-264.12" font-family="DejaVu Sans" font-size="11.00">Direct Dense</text>
<text text-anchor="middle" x="1000" y="-252.12" font-family="DejaVu Sans" font-size="11.00">Evidence</text>
</g>
<!-- C&#45;&gt;DIRECT -->
<g id="edge14" class="edge">
<title>C&#45;&gt;DIRECT</title>
<path fill="none" stroke="#64748b" stroke-width="1.25" d="M788.73,-399.56C810.04,-394.62 835.91,-387.45 858,-377.92 890.61,-363.84 900.87,-361.03 926,-335.92 941.53,-320.41 936.93,-309.89 952,-293.92 954.98,-290.76 958.31,-287.72 961.78,-284.85"/>
<polygon fill="#64748b" stroke="#64748b" stroke-width="1.25" points="963.44,-286.89 967.72,-280.2 960.19,-282.76 963.44,-286.89"/>
</g>
<!-- HIDDEN -->
<g id="node14" class="node">
<title>HIDDEN</title>
<path fill="#f3e8ff" stroke="#7a4eab" stroke-width="1.4" stroke-dasharray="5,2" d="M1036,-344.92C1036,-344.92 964,-344.92 964,-344.92 958,-344.92 952,-338.92 952,-332.92 952,-332.92 952,-318.92 952,-318.92 952,-312.92 958,-306.92 964,-306.92 964,-306.92 1036,-306.92 1036,-306.92 1042,-306.92 1048,-312.92 1048,-318.92 1048,-318.92 1048,-332.92 1048,-332.92 1048,-338.92 1042,-344.92 1036,-344.92"/>
<text text-anchor="middle" x="1000" y="-329.12" font-family="DejaVu Sans" font-size="11.00">Hidden Graph</text>
<text text-anchor="middle" x="1000" y="-317.12" font-family="DejaVu Sans" font-size="11.00">Completion</text>
</g>
<!-- C&#45;&gt;HIDDEN -->
<g id="edge15" class="edge">
<title>C&#45;&gt;HIDDEN</title>
<path fill="none" stroke="#64748b" stroke-width="1.25" stroke-dasharray="5,2" d="M788.84,-405.01C826.2,-401.34 881.27,-393.11 926,-374.92 941.29,-368.7 956.69,-358.99 969.38,-349.85"/>
<polygon fill="#64748b" stroke="#64748b" stroke-width="1.25" points="971.28,-351.71 975.75,-345.15 968.16,-347.49 971.28,-351.71"/>
</g>
<!-- UE -->
<g id="node5" class="node">
<title>UE</title>
<path fill="#e8f5e9" stroke="#3c7a57" stroke-width="1.4" d="M542.5,-381.92C542.5,-381.92 465.5,-381.92 465.5,-381.92 459.5,-381.92 453.5,-375.92 453.5,-369.92 453.5,-369.92 453.5,-355.92 453.5,-355.92 453.5,-349.92 459.5,-343.92 465.5,-343.92 465.5,-343.92 542.5,-343.92 542.5,-343.92 548.5,-343.92 554.5,-349.92 554.5,-355.92 554.5,-355.92 554.5,-369.92 554.5,-369.92 554.5,-375.92 548.5,-381.92 542.5,-381.92"/>
<text text-anchor="middle" x="504" y="-366.12" font-family="DejaVu Sans" font-size="11.00">Under&#45;covered</text>
<text text-anchor="middle" x="504" y="-354.12" font-family="DejaVu Sans" font-size="11.00">Queries U_t</text>
</g>
<!-- SR&#45;&gt;UE -->
<g id="edge4" class="edge">
<title>SR&#45;&gt;UE</title>
<path fill="none" stroke="#64748b" stroke-width="1.25" d="M310.33,-395.59C352.14,-388.5 405.46,-379.46 445.4,-372.69"/>
<polygon fill="#64748b" stroke="#64748b" stroke-width="1.25" points="446.25,-375.21 453.2,-371.36 445.37,-370.03 446.25,-375.21"/>
<text text-anchor="middle" x="369.5" y="-392.72" font-family="DejaVu Sans" font-size="9.00" fill="#475569">support failure</text>
</g>
<!-- SL -->
<g id="node6" class="node">
<title>SL</title>
<path fill="#e8f5e9" stroke="#3c7a57" stroke-width="1.4" d="M538.5,-446.92C538.5,-446.92 469.5,-446.92 469.5,-446.92 463.5,-446.92 457.5,-440.92 457.5,-434.92 457.5,-434.92 457.5,-420.92 457.5,-420.92 457.5,-414.92 463.5,-408.92 469.5,-408.92 469.5,-408.92 538.5,-408.92 538.5,-408.92 544.5,-408.92 550.5,-414.92 550.5,-420.92 550.5,-420.92 550.5,-434.92 550.5,-434.92 550.5,-440.92 544.5,-446.92 538.5,-446.92"/>
<text text-anchor="middle" x="504" y="-431.12" font-family="DejaVu Sans" font-size="11.00">Serve Ledger</text>
<text text-anchor="middle" x="504" y="-419.12" font-family="DejaVu Sans" font-size="11.00">S_t(d)</text>
</g>
<!-- SR&#45;&gt;SL -->
<g id="edge3" class="edge">
<title>SR&#45;&gt;SL</title>
<path fill="none" stroke="#64748b" stroke-width="1.25" d="M310.33,-412.33C353.64,-415.83 409.29,-420.34 449.64,-423.6"/>
<polygon fill="#64748b" stroke="#64748b" stroke-width="1.25" points="449.56,-426.23 457.24,-424.22 449.98,-421 449.56,-426.23"/>
<text text-anchor="middle" x="369.5" y="-421.72" font-family="DejaVu Sans" font-size="9.00" fill="#475569">resident hits</text>
</g>
<!-- ROUTE -->
<g id="node12" class="node">
<title>ROUTE</title>
<path fill="#f3e8ff" stroke="#7a4eab" stroke-width="1.4" d="M734.45,-339.2C734.45,-339.2 685.55,-312.65 685.55,-312.65 680.27,-309.78 680.27,-304.06 685.55,-301.2 685.55,-301.2 734.45,-274.65 734.45,-274.65 739.73,-271.78 750.27,-271.78 755.55,-274.65 755.55,-274.65 804.45,-301.2 804.45,-301.2 809.73,-304.06 809.73,-309.78 804.45,-312.65 804.45,-312.65 755.55,-339.2 755.55,-339.2 750.27,-342.06 739.73,-342.06 734.45,-339.2"/>
<text text-anchor="middle" x="745" y="-310.12" font-family="DejaVu Sans" font-size="11.00">Evidence</text>
<text text-anchor="middle" x="745" y="-298.12" font-family="DejaVu Sans" font-size="11.00">Visibility</text>
</g>
<!-- UE&#45;&gt;ROUTE -->
<g id="edge11" class="edge">
<title>UE&#45;&gt;ROUTE</title>
<path fill="none" stroke="#64748b" stroke-width="1.25" d="M554.52,-351.32C593.52,-342.18 647.88,-329.44 688.37,-319.95"/>
<polygon fill="#64748b" stroke="#64748b" stroke-width="1.25" points="689.06,-322.49 695.77,-318.22 687.87,-317.38 689.06,-322.49"/>
</g>
<!-- GAIN -->
<g id="node17" class="node">
<title>GAIN</title>
<path fill="#fce8e6" stroke="#b44b43" stroke-width="1.4" d="M1371,-553.92C1371,-553.92 1310,-553.92 1310,-553.92 1304,-553.92 1298,-547.92 1298,-541.92 1298,-541.92 1298,-527.92 1298,-527.92 1298,-521.92 1304,-515.92 1310,-515.92 1310,-515.92 1371,-515.92 1371,-515.92 1377,-515.92 1383,-521.92 1383,-527.92 1383,-527.92 1383,-541.92 1383,-541.92 1383,-547.92 1377,-553.92 1371,-553.92"/>
<text text-anchor="middle" x="1340.5" y="-538.12" font-family="DejaVu Sans" font-size="11.00">Net Gain</text>
<text text-anchor="middle" x="1340.5" y="-526.12" font-family="DejaVu Sans" font-size="11.00">Delta_t(c,v)</text>
</g>
<!-- SL&#45;&gt;GAIN -->
<g id="edge18" class="edge">
<title>SL&#45;&gt;GAIN</title>
<path fill="none" stroke="#64748b" stroke-width="1.25" d="M550.74,-442.41C598.46,-456.22 675.71,-474.92 744,-474.92 744,-474.92 744,-474.92 1174,-474.92 1219.51,-474.92 1268.07,-495.22 1300.74,-512.21"/>
<polygon fill="#64748b" stroke="#64748b" stroke-width="1.25" points="1299.6,-514.58 1307.46,-515.77 1302.06,-509.94 1299.6,-514.58"/>
</g>
<!-- REF -->
<g id="node7" class="node">
<title>REF</title>
<path fill="#fff4d6" stroke="#b7791f" stroke-width="1.4" d="M110,-556.92C110,-556.92 28,-556.92 28,-556.92 22,-556.92 16,-550.92 16,-544.92 16,-544.92 16,-530.92 16,-530.92 16,-524.92 22,-518.92 28,-518.92 28,-518.92 110,-518.92 110,-518.92 116,-518.92 122,-524.92 122,-530.92 122,-530.92 122,-544.92 122,-544.92 122,-550.92 116,-556.92 110,-556.92"/>
<text text-anchor="middle" x="69" y="-541.12" font-family="DejaVu Sans" font-size="11.00">Frozen Warmup</text>
<text text-anchor="middle" x="69" y="-529.12" font-family="DejaVu Sans" font-size="11.00">Reference</text>
</g>
<!-- REF&#45;&gt;GAP -->
<g id="edge7" class="edge">
<title>REF&#45;&gt;GAP</title>
<path fill="none" stroke="#64748b" stroke-width="1.25" d="M122.39,-537.31C143.88,-537.06 168.69,-536.77 190.08,-536.52"/>
<polygon fill="#64748b" stroke="#64748b" stroke-width="1.25" points="190.33,-539.14 197.8,-536.43 190.27,-533.89 190.33,-539.14"/>
</g>
<!-- MMD -->
<g id="node9" class="node">
<title>MMD</title>
<path fill="#fff4d6" stroke="#b7791f" stroke-width="1.4" d="M567,-565.92C567,-565.92 441,-565.92 441,-565.92 435,-565.92 429,-559.92 429,-553.92 429,-553.92 429,-539.92 429,-539.92 429,-533.92 435,-527.92 441,-527.92 441,-527.92 567,-527.92 567,-527.92 573,-527.92 579,-533.92 579,-539.92 579,-539.92 579,-553.92 579,-553.92 579,-559.92 573,-565.92 567,-565.92"/>
<text text-anchor="middle" x="504" y="-550.12" font-family="DejaVu Sans" font-size="11.00">Support&#45;Weighted MMD</text>
<text text-anchor="middle" x="504" y="-538.12" font-family="DejaVu Sans" font-size="11.00">RBF Kernel</text>
</g>
<!-- GAP&#45;&gt;MMD -->
<g id="edge8" class="edge">
<title>GAP&#45;&gt;MMD</title>
<path fill="none" stroke="#64748b" stroke-width="1.25" d="M287.23,-537.77C323.75,-539.32 376.83,-541.57 421.2,-543.45"/>
<polygon fill="#64748b" stroke="#64748b" stroke-width="1.25" points="421.21,-546.08 428.81,-543.78 421.43,-540.84 421.21,-546.08"/>
</g>
<!-- TEST -->
<g id="node10" class="node">
<title>TEST</title>
<path fill="#fff4d6" stroke="#b7791f" stroke-width="1.4" d="M733.63,-588.1C733.63,-588.1 643.37,-557.75 643.37,-557.75 637.69,-555.83 637.69,-552.01 643.37,-550.1 643.37,-550.1 733.63,-519.75 733.63,-519.75 739.31,-517.83 750.69,-517.83 756.37,-519.75 756.37,-519.75 846.63,-550.1 846.63,-550.1 852.31,-552.01 852.31,-555.83 846.63,-557.75 846.63,-557.75 756.37,-588.1 756.37,-588.1 750.69,-590.01 739.31,-590.01 733.63,-588.1"/>
<text text-anchor="middle" x="745" y="-557.12" font-family="DejaVu Sans" font-size="11.00">Permutation Test</text>
<text text-anchor="middle" x="745" y="-545.12" font-family="DejaVu Sans" font-size="11.00">p_t &lt;= alpha?</text>
</g>
<!-- MMD&#45;&gt;TEST -->
<g id="edge9" class="edge">
<title>MMD&#45;&gt;TEST</title>
<path fill="none" stroke="#64748b" stroke-width="1.25" d="M579.31,-549.1C596.34,-549.6 614.8,-550.14 633,-550.67"/>
<polygon fill="#64748b" stroke="#64748b" stroke-width="1.25" points="633.2,-553.3 640.77,-550.9 633.35,-548.05 633.2,-553.3"/>
</g>
<!-- CTRL -->
<g id="node11" class="node">
<title>CTRL</title>
<path fill="#ffe9b0" stroke="#a16207" stroke-width="1.8" d="M1036,-561.92C1036,-561.92 964,-561.92 964,-561.92 958,-561.92 952,-555.92 952,-549.92 952,-549.92 952,-535.92 952,-535.92 952,-529.92 958,-523.92 964,-523.92 964,-523.92 1036,-523.92 1036,-523.92 1042,-523.92 1048,-529.92 1048,-535.92 1048,-535.92 1048,-549.92 1048,-549.92 1048,-555.92 1042,-561.92 1036,-561.92"/>
<text text-anchor="middle" x="1000" y="-546.12" font-family="DejaVu Sans" font-size="11.00">Drift Alarm</text>
<text text-anchor="middle" x="1000" y="-534.12" font-family="DejaVu Sans" font-size="11.00">rho_t in {0,1}</text>
</g>
<!-- TEST&#45;&gt;CTRL -->
<g id="edge10" class="edge">
<title>TEST&#45;&gt;CTRL</title>
<path fill="none" stroke="#64748b" stroke-width="1.25" d="M845.27,-549.61C878.94,-548.14 915.32,-546.56 944.23,-545.3"/>
<polygon fill="#64748b" stroke="#64748b" stroke-width="1.25" points="944.42,-547.92 951.8,-544.97 944.19,-542.68 944.42,-547.92"/>
<text text-anchor="middle" x="905" y="-549.72" font-family="DejaVu Sans" font-size="9.00" fill="#475569">reject H0</text>
</g>
<!-- CTRL&#45;&gt;GAIN -->
<g id="edge20" class="edge">
<title>CTRL&#45;&gt;GAIN</title>
<path fill="none" stroke="#b7791f" stroke-width="1.25" d="M1048.07,-541.81C1111.87,-540.3 1225.28,-537.62 1290.21,-536.09"/>
<polygon fill="#b7791f" stroke="#b7791f" stroke-width="1.25" points="1290.45,-538.71 1297.88,-535.9 1290.32,-533.46 1290.45,-538.71"/>
<text text-anchor="middle" x="1173" y="-542.72" font-family="DejaVu Sans" font-size="9.00" fill="#475569">relax margin</text>
</g>
<!-- ROUTE&#45;&gt;DIRECT -->
<g id="edge12" class="edge">
<title>ROUTE&#45;&gt;DIRECT</title>
<path fill="none" stroke="#64748b" stroke-width="1.25" d="M797.81,-297.5C841.04,-289.64 902.41,-278.48 945.97,-270.56"/>
<polygon fill="#64748b" stroke="#64748b" stroke-width="1.25" points="946.71,-273.1 953.62,-269.17 945.77,-267.93 946.71,-273.1"/>
<text text-anchor="middle" x="905" y="-283.72" font-family="DejaVu Sans" font-size="9.00" fill="#475569">visible</text>
</g>
<!-- ROUTE&#45;&gt;HIDDEN -->
<g id="edge13" class="edge">
<title>ROUTE&#45;&gt;HIDDEN</title>
<path fill="none" stroke="#64748b" stroke-width="1.25" stroke-dasharray="5,2" d="M806.92,-311.5C848.68,-314.63 903.62,-318.76 944.04,-321.79"/>
<polygon fill="#64748b" stroke="#64748b" stroke-width="1.25" points="943.99,-324.42 951.66,-322.37 944.38,-319.19 943.99,-324.42"/>
<text text-anchor="middle" x="905" y="-322.72" font-family="DejaVu Sans" font-size="9.00" fill="#475569">hidden</text>
</g>
<!-- DL -->
<g id="node15" class="node">
<title>DL</title>
<path fill="#ead8ff" stroke="#6b3fa0" stroke-width="1.8" d="M1215,-344.92C1215,-344.92 1131,-344.92 1131,-344.92 1125,-344.92 1119,-338.92 1119,-332.92 1119,-332.92 1119,-318.92 1119,-318.92 1119,-312.92 1125,-306.92 1131,-306.92 1131,-306.92 1215,-306.92 1215,-306.92 1221,-306.92 1227,-312.92 1227,-318.92 1227,-318.92 1227,-332.92 1227,-332.92 1227,-338.92 1221,-344.92 1215,-344.92"/>
<text text-anchor="middle" x="1173" y="-329.12" font-family="DejaVu Sans" font-size="11.00">Demand Ledger</text>
<text text-anchor="middle" x="1173" y="-317.12" font-family="DejaVu Sans" font-size="11.00">D_t(d)</text>
</g>
<!-- DIRECT&#45;&gt;DL -->
<g id="edge16" class="edge">
<title>DIRECT&#45;&gt;DL</title>
<path fill="none" stroke="#64748b" stroke-width="1.25" d="M1046.38,-278.17C1067.36,-286.14 1092.51,-295.7 1114.77,-304.17"/>
<polygon fill="#64748b" stroke="#64748b" stroke-width="1.25" points="1113.95,-306.66 1121.89,-306.88 1115.82,-301.76 1113.95,-306.66"/>
</g>
<!-- HIDDEN&#45;&gt;DL -->
<g id="edge17" class="edge">
<title>HIDDEN&#45;&gt;DL</title>
<path fill="none" stroke="#64748b" stroke-width="1.25" stroke-dasharray="5,2" d="M1048.18,-325.92C1067.73,-325.92 1090.64,-325.92 1111.41,-325.92"/>
<polygon fill="#64748b" stroke="#64748b" stroke-width="1.25" points="1111.45,-328.55 1118.95,-325.92 1111.45,-323.3 1111.45,-328.55"/>
</g>
<!-- DL&#45;&gt;GAIN -->
<g id="edge19" class="edge">
<title>DL&#45;&gt;GAIN</title>
<path fill="none" stroke="#64748b" stroke-width="1.25" d="M1189.27,-345.21C1219.32,-383.16 1286.11,-467.5 1319.58,-509.76"/>
<polygon fill="#64748b" stroke="#64748b" stroke-width="1.25" points="1317.55,-511.43 1324.26,-515.68 1321.67,-508.17 1317.55,-511.43"/>
</g>
<!-- REP -->
<g id="node16" class="node">
<title>REP</title>
<path fill="#fce8e6" stroke="#b44b43" stroke-width="1.4" d="M1233,-617.92C1233,-617.92 1113,-617.92 1113,-617.92 1107,-617.92 1101,-611.92 1101,-605.92 1101,-605.92 1101,-591.92 1101,-591.92 1101,-585.92 1107,-579.92 1113,-579.92 1113,-579.92 1233,-579.92 1233,-579.92 1239,-579.92 1245,-585.92 1245,-591.92 1245,-591.92 1245,-605.92 1245,-605.92 1245,-611.92 1239,-617.92 1233,-617.92"/>
<text text-anchor="middle" x="1173" y="-602.12" font-family="DejaVu Sans" font-size="11.00">Replacement Pressure</text>
<text text-anchor="middle" x="1173" y="-590.12" font-family="DejaVu Sans" font-size="11.00">C_t</text>
</g>
<!-- REP&#45;&gt;GAIN -->
<g id="edge21" class="edge">
<title>REP&#45;&gt;GAIN</title>
<path fill="none" stroke="#64748b" stroke-width="1.25" d="M1227.04,-579.89C1241.66,-574.52 1257.48,-568.6 1272,-562.92 1278.03,-560.56 1284.34,-558.03 1290.57,-555.49"/>
<polygon fill="#64748b" stroke="#64748b" stroke-width="1.25" points="1291.9,-557.79 1297.84,-552.52 1289.9,-552.93 1291.9,-557.79"/>
</g>
<!-- GAIN&#45;&gt;UPDATE -->
<g id="edge22" class="edge">
<title>GAIN&#45;&gt;UPDATE</title>
<path fill="none" stroke="#64748b" stroke-width="1.25" d="M1383.07,-535.7C1410.31,-536.21 1446.71,-536.9 1478.96,-537.5"/>
<polygon fill="#64748b" stroke="#64748b" stroke-width="1.25" points="1479.08,-540.13 1486.63,-537.65 1479.18,-534.88 1479.08,-540.13"/>
<text text-anchor="middle" x="1435" y="-539.72" font-family="DejaVu Sans" font-size="9.00" fill="#475569">Delta_t &gt; 0</text>
</g>
<!-- UPDATE&#45;&gt;REP -->
<g id="edge25" class="edge">
<title>UPDATE&#45;&gt;REP</title>
<path fill="none" stroke="#64748b" stroke-width="1.25" d="M1486.94,-550.67C1455.39,-556.07 1417.3,-562.48 1383,-567.92 1340.04,-574.74 1292.03,-581.89 1252.86,-587.61"/>
<polygon fill="#64748b" stroke="#64748b" stroke-width="1.25" points="1252.2,-585.05 1245.15,-588.73 1252.96,-590.25 1252.2,-585.05"/>
<text text-anchor="middle" x="1340.5" y="-582.72" font-family="DejaVu Sans" font-size="9.00" fill="#475569">replacement EMA</text>
</g>
<!-- KN -->
<g id="node19" class="node">
<title>KN</title>
<path fill="#d9e8ff" stroke="#315a9a" stroke-width="2" d="M1805,-560.4C1805,-563.03 1776.31,-565.17 1741,-565.17 1705.69,-565.17 1677,-563.03 1677,-560.4 1677,-560.4 1677,-517.44 1677,-517.44 1677,-514.81 1705.69,-512.67 1741,-512.67 1776.31,-512.67 1805,-514.81 1805,-517.44 1805,-517.44 1805,-560.4 1805,-560.4"/>
<path fill="none" stroke="#315a9a" stroke-width="2" d="M1805,-560.4C1805,-557.77 1776.31,-555.63 1741,-555.63 1705.69,-555.63 1677,-557.77 1677,-560.4"/>
<text text-anchor="middle" x="1741" y="-542.12" font-family="DejaVu Sans" font-size="11.00">Updated Hot Cache</text>
<text text-anchor="middle" x="1741" y="-530.12" font-family="DejaVu Sans" font-size="11.00">K_(t+1)</text>
</g>
<!-- UPDATE&#45;&gt;KN -->
<g id="edge24" class="edge">
<title>UPDATE&#45;&gt;KN</title>
<path fill="none" stroke="#64748b" stroke-width="1.25" d="M1624.05,-538.92C1638.75,-538.92 1654.35,-538.92 1669.18,-538.92"/>
<polygon fill="#64748b" stroke="#64748b" stroke-width="1.25" points="1669.36,-541.55 1676.86,-538.92 1669.36,-536.3 1669.36,-541.55"/>
</g>
<!-- KN&#45;&gt;K -->
<g id="edge26" class="edge">
<title>KN&#45;&gt;K</title>
<path fill="none" stroke="#64748b" stroke-width="1.25" stroke-dasharray="5,2" d="M1725.11,-512.58C1682.87,-441.05 1554.19,-244.38 1383,-180.92 876.22,6.94 611.03,113.23 167,-194.92 108.86,-235.27 84.6,-319.94 75.26,-367.2"/>
<polygon fill="#64748b" stroke="#64748b" stroke-width="1.25" points="72.66,-366.87 73.84,-374.73 77.81,-367.85 72.66,-366.87"/>
<text text-anchor="middle" x="1000" y="-67.72" font-family="DejaVu Sans" font-size="9.00" fill="#475569">next window</text>
</g>
</g>
</svg>
